<mxfile host="app.diagrams.net" modified="2020-11-02T21:11:42.640Z" agent="5.0 (Windows NT 10.0; Win64; x64) AppleWebKit/537.36 (KHTML, like Gecko) Chrome/85.0.4183.102 YaBrowser/20.9.3.126 Yowser/2.5 Safari/537.36" etag="fbR2K4aj3Effb53Jb4hT" version="13.4.5" type="github" pages="2">
  <diagram id="UlmRlPu3MlplNsz4lUj-" name="Page-1">
    <mxGraphModel dx="1447" dy="755" grid="1" gridSize="10" guides="1" tooltips="1" connect="1" arrows="1" fold="1" page="1" pageScale="1" pageWidth="1169" pageHeight="827" math="0" shadow="0">
      <root>
        <mxCell id="0" />
        <mxCell id="1" parent="0" />
        <mxCell id="5tvt5PeshBpxNtrqeua9-6" value="" style="rounded=0;whiteSpace=wrap;html=1;dashed=1;" parent="1" vertex="1">
          <mxGeometry x="599" y="20" width="551" height="394" as="geometry" />
        </mxCell>
        <mxCell id="2" value="&lt;font color=&quot;#000000&quot;&gt;&lt;span style=&quot;font-size: 21px&quot;&gt;&lt;b&gt;Корпоративная сеть&lt;/b&gt;&lt;/span&gt;&lt;/font&gt;" style="ellipse;shape=cloud;whiteSpace=wrap;html=1;fontColor=#0066CC;verticalAlign=top;strokeColor=#6881B3;strokeWidth=2;fillColor=#CCCCCC;gradientDirection=north;" parent="1" vertex="1">
          <mxGeometry x="9" y="11" width="590" height="580" as="geometry" />
        </mxCell>
        <mxCell id="1UzGWbSAGFntDquRKkt2-6" value="&lt;font style=&quot;font-size: 18px&quot;&gt;Вирт.сервер&lt;br&gt;АССТИ&lt;/font&gt;" style="fontColor=#0066CC;verticalAlign=top;verticalLabelPosition=bottom;labelPosition=center;align=center;html=1;outlineConnect=0;fillColor=#CCCCCC;strokeColor=#6881B3;gradientColor=none;gradientDirection=north;strokeWidth=2;shape=mxgraph.networks.virtual_server;" parent="1" vertex="1">
          <mxGeometry x="320" y="150" width="110" height="120" as="geometry" />
        </mxCell>
        <mxCell id="1UzGWbSAGFntDquRKkt2-19" value="&lt;font style=&quot;font-size: 14px&quot;&gt;Ethernet&lt;br&gt;OPCUA&lt;br&gt;протокол&lt;/font&gt;" style="edgeStyle=orthogonalEdgeStyle;rounded=0;orthogonalLoop=1;jettySize=auto;html=1;exitX=1;exitY=0.5;exitDx=0;exitDy=0;exitPerimeter=0;startArrow=classic;startFill=1;endArrow=none;endFill=0;strokeWidth=4;entryX=0;entryY=0.5;entryDx=0;entryDy=0;entryPerimeter=0;" parent="1" source="1UzGWbSAGFntDquRKkt2-6" target="1UzGWbSAGFntDquRKkt2-2" edge="1">
          <mxGeometry relative="1" as="geometry">
            <Array as="points">
              <mxPoint x="640" y="210" />
            </Array>
            <mxPoint x="500" y="350" as="targetPoint" />
          </mxGeometry>
        </mxCell>
        <mxCell id="5tvt5PeshBpxNtrqeua9-2" value="&lt;font style=&quot;font-size: 14px&quot;&gt;Ethernet&lt;br&gt;HTTP&lt;br&gt;&lt;/font&gt;" style="edgeStyle=orthogonalEdgeStyle;rounded=0;orthogonalLoop=1;jettySize=auto;html=1;startArrow=classic;startFill=1;endArrow=none;endFill=0;strokeWidth=4;entryX=0.5;entryY=0;entryDx=0;entryDy=0;entryPerimeter=0;exitX=0.5;exitY=0;exitDx=0;exitDy=0;exitPerimeter=0;" parent="1" source="1UzGWbSAGFntDquRKkt2-2" target="1UzGWbSAGFntDquRKkt2-6" edge="1">
          <mxGeometry relative="1" as="geometry">
            <Array as="points">
              <mxPoint x="680" y="50" />
              <mxPoint x="375" y="50" />
            </Array>
            <mxPoint x="530" y="50" as="sourcePoint" />
            <mxPoint x="600.0000000000002" y="138" as="targetPoint" />
          </mxGeometry>
        </mxCell>
        <mxCell id="5tvt5PeshBpxNtrqeua9-3" value="" style="group" parent="1" vertex="1" connectable="0">
          <mxGeometry x="640" y="101" width="505" height="280" as="geometry" />
        </mxCell>
        <mxCell id="1UzGWbSAGFntDquRKkt2-2" value="&lt;font style=&quot;font-size: 18px&quot;&gt;АСУ ТП Сервер&lt;/font&gt;" style="shape=mxgraph.cisco.servers.standard_host;html=1;pointerEvents=1;dashed=0;fillColor=#036897;strokeColor=#ffffff;strokeWidth=2;verticalLabelPosition=bottom;verticalAlign=top;align=center;outlineConnect=0;" parent="5tvt5PeshBpxNtrqeua9-3" vertex="1">
          <mxGeometry y="52.370000000000005" width="80" height="115.25" as="geometry" />
        </mxCell>
        <mxCell id="1UzGWbSAGFntDquRKkt2-3" value="" style="fontColor=#0066CC;verticalAlign=top;verticalLabelPosition=bottom;labelPosition=center;align=center;html=1;outlineConnect=0;fillColor=#CCCCCC;strokeColor=#6881B3;gradientColor=none;gradientDirection=north;strokeWidth=2;shape=mxgraph.networks.terminal;" parent="5tvt5PeshBpxNtrqeua9-3" vertex="1">
          <mxGeometry x="385" y="156.5" width="80" height="65" as="geometry" />
        </mxCell>
        <mxCell id="1UzGWbSAGFntDquRKkt2-4" value="" style="fontColor=#0066CC;verticalAlign=top;verticalLabelPosition=bottom;labelPosition=center;align=center;html=1;outlineConnect=0;fillColor=#CCCCCC;strokeColor=#6881B3;gradientColor=none;gradientDirection=north;strokeWidth=2;shape=mxgraph.networks.terminal;" parent="5tvt5PeshBpxNtrqeua9-3" vertex="1">
          <mxGeometry x="295" y="156.5" width="80" height="65" as="geometry" />
        </mxCell>
        <mxCell id="1UzGWbSAGFntDquRKkt2-5" value="&lt;font style=&quot;font-size: 15px&quot; color=&quot;#000000&quot;&gt;АРМ&lt;br&gt;Машиниста&lt;br&gt;&lt;/font&gt;" style="fontColor=#0066CC;verticalAlign=top;verticalLabelPosition=bottom;labelPosition=center;align=center;html=1;outlineConnect=0;fillColor=#CCCCCC;strokeColor=#6881B3;gradientColor=none;gradientDirection=north;strokeWidth=2;shape=mxgraph.networks.terminal;fontStyle=1" parent="5tvt5PeshBpxNtrqeua9-3" vertex="1">
          <mxGeometry x="205" y="156.5" width="80" height="65" as="geometry" />
        </mxCell>
        <mxCell id="1UzGWbSAGFntDquRKkt2-18" style="edgeStyle=orthogonalEdgeStyle;rounded=0;orthogonalLoop=1;jettySize=auto;html=1;exitX=0.5;exitY=1;exitDx=0;exitDy=0;exitPerimeter=0;startArrow=classic;startFill=1;endArrow=none;endFill=0;" parent="5tvt5PeshBpxNtrqeua9-3" source="1UzGWbSAGFntDquRKkt2-7" target="1UzGWbSAGFntDquRKkt2-2" edge="1">
          <mxGeometry relative="1" as="geometry">
            <mxPoint x="59.200000000000045" y="204.005" as="targetPoint" />
          </mxGeometry>
        </mxCell>
        <mxCell id="1UzGWbSAGFntDquRKkt2-7" value="&lt;font color=&quot;#000000&quot; size=&quot;1&quot;&gt;&lt;b style=&quot;font-size: 16px&quot;&gt;Щитовые мониторы&lt;/b&gt;&lt;/font&gt;" style="fontColor=#0066CC;verticalAlign=top;verticalLabelPosition=bottom;labelPosition=center;align=center;html=1;outlineConnect=0;fillColor=#CCCCCC;strokeColor=#6881B3;gradientColor=none;gradientDirection=north;strokeWidth=2;shape=mxgraph.networks.tablet;" parent="5tvt5PeshBpxNtrqeua9-3" vertex="1">
          <mxGeometry x="175" width="100" height="70" as="geometry" />
        </mxCell>
        <mxCell id="1UzGWbSAGFntDquRKkt2-17" style="edgeStyle=orthogonalEdgeStyle;rounded=0;orthogonalLoop=1;jettySize=auto;html=1;exitX=0.5;exitY=1;exitDx=0;exitDy=0;exitPerimeter=0;startArrow=classic;startFill=1;endArrow=none;endFill=0;" parent="5tvt5PeshBpxNtrqeua9-3" source="1UzGWbSAGFntDquRKkt2-8" target="1UzGWbSAGFntDquRKkt2-2" edge="1">
          <mxGeometry relative="1" as="geometry">
            <mxPoint x="80" y="130" as="targetPoint" />
          </mxGeometry>
        </mxCell>
        <mxCell id="1UzGWbSAGFntDquRKkt2-8" value="" style="fontColor=#0066CC;verticalAlign=top;verticalLabelPosition=bottom;labelPosition=center;align=center;html=1;outlineConnect=0;fillColor=#CCCCCC;strokeColor=#6881B3;gradientColor=none;gradientDirection=north;strokeWidth=2;shape=mxgraph.networks.tablet;" parent="5tvt5PeshBpxNtrqeua9-3" vertex="1">
          <mxGeometry x="295" width="100" height="70" as="geometry" />
        </mxCell>
        <mxCell id="1UzGWbSAGFntDquRKkt2-16" style="edgeStyle=orthogonalEdgeStyle;rounded=0;orthogonalLoop=1;jettySize=auto;html=1;exitX=0.5;exitY=1;exitDx=0;exitDy=0;exitPerimeter=0;startArrow=classic;startFill=1;endArrow=none;endFill=0;" parent="5tvt5PeshBpxNtrqeua9-3" source="1UzGWbSAGFntDquRKkt2-9" target="1UzGWbSAGFntDquRKkt2-2" edge="1">
          <mxGeometry relative="1" as="geometry" />
        </mxCell>
        <mxCell id="1UzGWbSAGFntDquRKkt2-9" value="" style="fontColor=#0066CC;verticalAlign=top;verticalLabelPosition=bottom;labelPosition=center;align=center;html=1;outlineConnect=0;fillColor=#CCCCCC;strokeColor=#6881B3;gradientColor=none;gradientDirection=north;strokeWidth=2;shape=mxgraph.networks.tablet;" parent="5tvt5PeshBpxNtrqeua9-3" vertex="1">
          <mxGeometry x="405" width="100" height="70" as="geometry" />
        </mxCell>
        <mxCell id="1UzGWbSAGFntDquRKkt2-10" value="" style="fontColor=#0066CC;verticalAlign=top;verticalLabelPosition=bottom;labelPosition=center;align=center;html=1;outlineConnect=0;fillColor=#CCCCCC;strokeColor=#6881B3;gradientColor=none;gradientDirection=north;strokeWidth=2;shape=mxgraph.networks.user_male;" parent="5tvt5PeshBpxNtrqeua9-3" vertex="1">
          <mxGeometry x="175" y="180" width="40" height="100" as="geometry" />
        </mxCell>
        <mxCell id="1UzGWbSAGFntDquRKkt2-11" value="" style="fontColor=#0066CC;verticalAlign=top;verticalLabelPosition=bottom;labelPosition=center;align=center;html=1;outlineConnect=0;fillColor=#CCCCCC;strokeColor=#6881B3;gradientColor=none;gradientDirection=north;strokeWidth=2;shape=mxgraph.networks.user_male;" parent="5tvt5PeshBpxNtrqeua9-3" vertex="1">
          <mxGeometry x="285" y="180" width="40" height="100" as="geometry" />
        </mxCell>
        <mxCell id="1UzGWbSAGFntDquRKkt2-12" value="" style="fontColor=#0066CC;verticalAlign=top;verticalLabelPosition=bottom;labelPosition=center;align=center;html=1;outlineConnect=0;fillColor=#CCCCCC;strokeColor=#6881B3;gradientColor=none;gradientDirection=north;strokeWidth=2;shape=mxgraph.networks.user_male;" parent="5tvt5PeshBpxNtrqeua9-3" vertex="1">
          <mxGeometry x="375" y="180" width="40" height="100" as="geometry" />
        </mxCell>
        <mxCell id="5tvt5PeshBpxNtrqeua9-4" value="" style="fontColor=#0066CC;verticalAlign=top;verticalLabelPosition=bottom;labelPosition=center;align=center;html=1;outlineConnect=0;fillColor=#CCCCCC;strokeColor=#6881B3;gradientColor=none;gradientDirection=north;strokeWidth=2;shape=mxgraph.networks.pc;" parent="1" vertex="1">
          <mxGeometry x="130" y="344" width="100" height="70" as="geometry" />
        </mxCell>
      </root>
    </mxGraphModel>
  </diagram>
  <diagram id="fvJauqjlG-KV8j_j-Zet" name="Page-2">
    <mxGraphModel dx="1736" dy="906" grid="1" gridSize="10" guides="1" tooltips="1" connect="1" arrows="1" fold="1" page="1" pageScale="1" pageWidth="1169" pageHeight="827" math="0" shadow="0">
      <root>
        <mxCell id="mN69lAe2RCZF8AgsvQ01-0" />
        <mxCell id="mN69lAe2RCZF8AgsvQ01-1" parent="mN69lAe2RCZF8AgsvQ01-0" />
        <mxCell id="mN69lAe2RCZF8AgsvQ01-8" value="" style="whiteSpace=wrap;html=1;aspect=fixed;dashed=1;" vertex="1" parent="mN69lAe2RCZF8AgsvQ01-1">
          <mxGeometry x="162" y="40" width="700" height="700" as="geometry" />
        </mxCell>
        <mxCell id="mN69lAe2RCZF8AgsvQ01-20" style="edgeStyle=orthogonalEdgeStyle;rounded=0;orthogonalLoop=1;jettySize=auto;html=1;exitX=0;exitY=0.5;exitDx=0;exitDy=0;entryX=1;entryY=0.5;entryDx=0;entryDy=0;entryPerimeter=0;endSize=9;strokeWidth=3;" edge="1" parent="mN69lAe2RCZF8AgsvQ01-1" source="mN69lAe2RCZF8AgsvQ01-2" target="mN69lAe2RCZF8AgsvQ01-18">
          <mxGeometry relative="1" as="geometry" />
        </mxCell>
        <mxCell id="mN69lAe2RCZF8AgsvQ01-30" value="&lt;font style=&quot;font-size: 22px&quot;&gt;online&lt;/font&gt;" style="edgeStyle=isometricEdgeStyle;rounded=0;orthogonalLoop=1;jettySize=auto;html=1;exitX=0;exitY=0.25;exitDx=0;exitDy=0;entryX=0.75;entryY=1;entryDx=0;entryDy=0;endSize=9;strokeWidth=3;startArrow=classic;startFill=1;startSize=9;" edge="1" parent="mN69lAe2RCZF8AgsvQ01-1" source="mN69lAe2RCZF8AgsvQ01-2" target="mN69lAe2RCZF8AgsvQ01-28">
          <mxGeometry relative="1" as="geometry">
            <Array as="points">
              <mxPoint x="392" y="520" />
            </Array>
          </mxGeometry>
        </mxCell>
        <mxCell id="mN69lAe2RCZF8AgsvQ01-2" value="" style="shape=image;html=1;verticalAlign=top;verticalLabelPosition=bottom;labelBackgroundColor=#ffffff;imageAspect=0;aspect=fixed;image=https://cdn4.iconfinder.com/data/icons/redis-2/1451/Untitled-2-128.png;dashed=1;" vertex="1" parent="mN69lAe2RCZF8AgsvQ01-1">
          <mxGeometry x="499" y="550" width="168" height="168" as="geometry" />
        </mxCell>
        <mxCell id="mN69lAe2RCZF8AgsvQ01-31" value="&lt;font style=&quot;font-size: 18px&quot;&gt;Archive&lt;/font&gt;" style="edgeStyle=isometricEdgeStyle;rounded=0;orthogonalLoop=1;jettySize=auto;html=1;exitX=0.5;exitY=0;exitDx=0;exitDy=0;exitPerimeter=0;entryX=0.25;entryY=1;entryDx=0;entryDy=0;endSize=9;strokeWidth=3;startArrow=classic;startFill=1;endArrow=classic;endFill=1;startSize=9;" edge="1" parent="mN69lAe2RCZF8AgsvQ01-1" source="mN69lAe2RCZF8AgsvQ01-3" target="mN69lAe2RCZF8AgsvQ01-28">
          <mxGeometry relative="1" as="geometry" />
        </mxCell>
        <mxCell id="mN69lAe2RCZF8AgsvQ01-3" value="" style="outlineConnect=0;dashed=0;verticalLabelPosition=bottom;verticalAlign=top;align=center;html=1;shape=mxgraph.aws3.mysql_db_instance;fillColor=#2E73B8;gradientColor=none;" vertex="1" parent="mN69lAe2RCZF8AgsvQ01-1">
          <mxGeometry x="182" y="571.75" width="140" height="124.5" as="geometry" />
        </mxCell>
        <mxCell id="mN69lAe2RCZF8AgsvQ01-12" value="&lt;font style=&quot;font-size: 23px&quot;&gt;Subscribe&lt;br&gt;to change event&lt;/font&gt;" style="edgeStyle=orthogonalEdgeStyle;rounded=0;orthogonalLoop=1;jettySize=auto;html=1;exitX=0;exitY=0.5;exitDx=0;exitDy=0;endSize=9;" edge="1" parent="mN69lAe2RCZF8AgsvQ01-1" source="mN69lAe2RCZF8AgsvQ01-9" target="mN69lAe2RCZF8AgsvQ01-2">
          <mxGeometry x="-0.5909" y="45" relative="1" as="geometry">
            <mxPoint x="-45" y="44" as="offset" />
          </mxGeometry>
        </mxCell>
        <mxCell id="mN69lAe2RCZF8AgsvQ01-9" value="&lt;span style=&quot;font-size: 18px&quot;&gt;Python OPC UA Client 1&lt;/span&gt;" style="rounded=1;whiteSpace=wrap;html=1;strokeWidth=8;" vertex="1" parent="mN69lAe2RCZF8AgsvQ01-1">
          <mxGeometry x="682" y="120" width="160" height="90" as="geometry" />
        </mxCell>
        <mxCell id="mN69lAe2RCZF8AgsvQ01-13" style="edgeStyle=orthogonalEdgeStyle;rounded=0;orthogonalLoop=1;jettySize=auto;html=1;exitX=0;exitY=0.5;exitDx=0;exitDy=0;endSize=9;" edge="1" parent="mN69lAe2RCZF8AgsvQ01-1" source="mN69lAe2RCZF8AgsvQ01-10">
          <mxGeometry relative="1" as="geometry">
            <mxPoint x="582" y="550" as="targetPoint" />
          </mxGeometry>
        </mxCell>
        <mxCell id="mN69lAe2RCZF8AgsvQ01-10" value="&lt;span style=&quot;font-size: 18px&quot;&gt;Python OPC UA Client 2&lt;/span&gt;" style="rounded=1;whiteSpace=wrap;html=1;strokeWidth=8;" vertex="1" parent="mN69lAe2RCZF8AgsvQ01-1">
          <mxGeometry x="682" y="240" width="160" height="90" as="geometry" />
        </mxCell>
        <mxCell id="mN69lAe2RCZF8AgsvQ01-14" style="edgeStyle=orthogonalEdgeStyle;rounded=0;orthogonalLoop=1;jettySize=auto;html=1;exitX=0;exitY=0.5;exitDx=0;exitDy=0;entryX=0.5;entryY=0;entryDx=0;entryDy=0;endSize=9;" edge="1" parent="mN69lAe2RCZF8AgsvQ01-1" source="mN69lAe2RCZF8AgsvQ01-11" target="mN69lAe2RCZF8AgsvQ01-2">
          <mxGeometry relative="1" as="geometry">
            <mxPoint x="582" y="570" as="targetPoint" />
          </mxGeometry>
        </mxCell>
        <mxCell id="mN69lAe2RCZF8AgsvQ01-11" value="&lt;font style=&quot;font-size: 18px&quot;&gt;Python OPC UA Client N&lt;/font&gt;" style="rounded=1;whiteSpace=wrap;html=1;strokeWidth=8;" vertex="1" parent="mN69lAe2RCZF8AgsvQ01-1">
          <mxGeometry x="682" y="369" width="160" height="90" as="geometry" />
        </mxCell>
        <mxCell id="mN69lAe2RCZF8AgsvQ01-15" value="" style="shape=image;html=1;verticalAlign=top;verticalLabelPosition=bottom;labelBackgroundColor=#ffffff;imageAspect=0;aspect=fixed;image=https://cdn4.iconfinder.com/data/icons/logos-and-brands/512/267_Python_logo-128.png;strokeWidth=8;" vertex="1" parent="mN69lAe2RCZF8AgsvQ01-1">
          <mxGeometry x="442" y="440" width="70" height="70" as="geometry" />
        </mxCell>
        <mxCell id="mN69lAe2RCZF8AgsvQ01-17" value="Script" style="html=1;strokeColor=none;fillColor=#0079D6;labelPosition=center;verticalLabelPosition=middle;verticalAlign=top;align=center;fontSize=12;outlineConnect=0;spacingTop=-6;fontColor=#FFFFFF;shape=mxgraph.sitemap.script;" vertex="1" parent="mN69lAe2RCZF8AgsvQ01-1">
          <mxGeometry x="512" y="440" width="120" height="70" as="geometry" />
        </mxCell>
        <mxCell id="mN69lAe2RCZF8AgsvQ01-21" style="edgeStyle=orthogonalEdgeStyle;rounded=0;orthogonalLoop=1;jettySize=auto;html=1;exitX=0;exitY=0.5;exitDx=0;exitDy=0;exitPerimeter=0;entryX=1;entryY=0.5;entryDx=0;entryDy=0;entryPerimeter=0;strokeWidth=3;endSize=9;" edge="1" parent="mN69lAe2RCZF8AgsvQ01-1" source="mN69lAe2RCZF8AgsvQ01-18" target="mN69lAe2RCZF8AgsvQ01-3">
          <mxGeometry relative="1" as="geometry" />
        </mxCell>
        <mxCell id="mN69lAe2RCZF8AgsvQ01-18" value="Script" style="html=1;strokeColor=none;fillColor=#0079D6;labelPosition=center;verticalLabelPosition=middle;verticalAlign=top;align=center;fontSize=12;outlineConnect=0;spacingTop=-6;fontColor=#FFFFFF;shape=mxgraph.sitemap.script;" vertex="1" parent="mN69lAe2RCZF8AgsvQ01-1">
          <mxGeometry x="352" y="599" width="120" height="70" as="geometry" />
        </mxCell>
        <mxCell id="mN69lAe2RCZF8AgsvQ01-19" value="" style="shape=image;html=1;verticalAlign=top;verticalLabelPosition=bottom;labelBackgroundColor=#ffffff;imageAspect=0;aspect=fixed;image=https://cdn4.iconfinder.com/data/icons/logos-and-brands/512/267_Python_logo-128.png;strokeWidth=8;" vertex="1" parent="mN69lAe2RCZF8AgsvQ01-1">
          <mxGeometry x="377" y="669" width="70" height="70" as="geometry" />
        </mxCell>
        <mxCell id="mN69lAe2RCZF8AgsvQ01-24" style="edgeStyle=orthogonalEdgeStyle;rounded=0;orthogonalLoop=1;jettySize=auto;html=1;exitX=0;exitY=0.5;exitDx=0;exitDy=0;entryX=1;entryY=0.5;entryDx=0;entryDy=0;endSize=9;strokeWidth=3;" edge="1" parent="mN69lAe2RCZF8AgsvQ01-1" source="mN69lAe2RCZF8AgsvQ01-23" target="mN69lAe2RCZF8AgsvQ01-9">
          <mxGeometry relative="1" as="geometry" />
        </mxCell>
        <mxCell id="mN69lAe2RCZF8AgsvQ01-23" value="&lt;span style=&quot;font-size: 18px&quot;&gt;OPC UA Server 1&lt;/span&gt;" style="rounded=1;whiteSpace=wrap;html=1;strokeWidth=8;" vertex="1" parent="mN69lAe2RCZF8AgsvQ01-1">
          <mxGeometry x="910" y="120" width="160" height="90" as="geometry" />
        </mxCell>
        <mxCell id="mN69lAe2RCZF8AgsvQ01-26" style="edgeStyle=orthogonalEdgeStyle;rounded=0;orthogonalLoop=1;jettySize=auto;html=1;exitX=0;exitY=0.5;exitDx=0;exitDy=0;entryX=1;entryY=0.5;entryDx=0;entryDy=0;endSize=9;strokeWidth=3;" edge="1" parent="mN69lAe2RCZF8AgsvQ01-1" source="mN69lAe2RCZF8AgsvQ01-25" target="mN69lAe2RCZF8AgsvQ01-10">
          <mxGeometry relative="1" as="geometry" />
        </mxCell>
        <mxCell id="mN69lAe2RCZF8AgsvQ01-25" value="&lt;span style=&quot;font-size: 18px&quot;&gt;OPC UA Server 2&lt;/span&gt;" style="rounded=1;whiteSpace=wrap;html=1;strokeWidth=8;" vertex="1" parent="mN69lAe2RCZF8AgsvQ01-1">
          <mxGeometry x="910" y="240" width="160" height="90" as="geometry" />
        </mxCell>
        <mxCell id="mN69lAe2RCZF8AgsvQ01-28" value="&lt;font style=&quot;font-size: 25px&quot;&gt;Web Framework&lt;br&gt;&lt;br&gt;JSONRPC API&lt;br&gt;&lt;/font&gt;" style="rounded=0;whiteSpace=wrap;html=1;strokeWidth=8;" vertex="1" parent="mN69lAe2RCZF8AgsvQ01-1">
          <mxGeometry x="182" y="110" width="250" height="300" as="geometry" />
        </mxCell>
        <mxCell id="mN69lAe2RCZF8AgsvQ01-29" value="" style="shape=image;html=1;verticalAlign=top;verticalLabelPosition=bottom;labelBackgroundColor=#ffffff;imageAspect=0;aspect=fixed;image=https://cdn4.iconfinder.com/data/icons/logos-and-brands/512/267_Python_logo-128.png;strokeWidth=8;" vertex="1" parent="mN69lAe2RCZF8AgsvQ01-1">
          <mxGeometry x="362" y="110" width="70" height="70" as="geometry" />
        </mxCell>
        <mxCell id="mN69lAe2RCZF8AgsvQ01-34" style="edgeStyle=orthogonalEdgeStyle;rounded=0;orthogonalLoop=1;jettySize=auto;html=1;exitX=0;exitY=0.5;exitDx=0;exitDy=0;entryX=1;entryY=0.5;entryDx=0;entryDy=0;startArrow=none;startFill=0;startSize=9;endArrow=classic;endFill=1;endSize=9;strokeWidth=3;" edge="1" parent="mN69lAe2RCZF8AgsvQ01-1" source="mN69lAe2RCZF8AgsvQ01-32" target="mN69lAe2RCZF8AgsvQ01-11">
          <mxGeometry relative="1" as="geometry" />
        </mxCell>
        <mxCell id="mN69lAe2RCZF8AgsvQ01-32" value="&lt;span style=&quot;font-size: 18px&quot;&gt;OPC UA Server N&lt;/span&gt;" style="rounded=1;whiteSpace=wrap;html=1;strokeWidth=8;" vertex="1" parent="mN69lAe2RCZF8AgsvQ01-1">
          <mxGeometry x="910" y="369" width="160" height="90" as="geometry" />
        </mxCell>
      </root>
    </mxGraphModel>
  </diagram>
</mxfile>
